<svg xmlns="http://www.w3.org/2000/svg" xmlns:xlink="http://www.w3.org/1999/xlink" width="487" zoomAndPan="magnify" viewBox="0 0 365.25 114.749999" height="153" preserveAspectRatio="xMidYMid meet" version="1.0"><defs><g/><clipPath id="2e0beaa7fb"><path d="M 233.648438 92 L 363.863281 92 L 363.863281 97 L 233.648438 97 Z M 233.648438 92 " clip-rule="nonzero"/></clipPath><clipPath id="aaa8d8b925"><path d="M 279 103 L 318 103 L 318 107.21875 L 279 107.21875 Z M 279 103 " clip-rule="nonzero"/></clipPath><clipPath id="1dea366ec0"><path d="M 233.648438 92 L 363.863281 92 L 363.863281 97 L 233.648438 97 Z M 233.648438 92 " clip-rule="nonzero"/></clipPath><clipPath id="c30bcc10cf"><path d="M 279 103 L 318 103 L 318 107.21875 L 279 107.21875 Z M 279 103 " clip-rule="nonzero"/></clipPath></defs><path fill="#0d3b66" d="M 274.410156 60.097656 L 274.410156 82.933594 L 275.378906 82.933594 L 275.378906 73.152344 L 277.925781 70.4375 L 280.695312 71.230469 L 280.695312 82.121094 L 281.539062 82.363281 L 281.539062 68.910156 L 283.253906 67.859375 L 283.253906 62.132812 L 286.332031 58.855469 L 289.175781 61.878906 L 289.175781 84.113281 L 290.167969 84.398438 L 290.167969 73.101562 L 291.058594 73.648438 L 291.058594 66.484375 L 292.535156 66.90625 L 292.535156 62.414062 L 294.335938 62.929688 L 297.054688 60.035156 L 297.054688 80.007812 L 297.679688 80.007812 L 297.679688 69.480469 L 301.054688 65.886719 L 301.054688 84.683594 L 301.59375 90.945312 L 301.59375 62.769531 L 308.074219 69.671875 L 308.074219 76.921875 L 309.160156 76.921875 L 309.160156 66.046875 L 311.539062 64.582031 L 311.539062 60.066406 L 313.394531 58.09375 L 318.589844 63.628906 L 318.589844 82.394531 L 319.808594 82.394531 L 319.808594 76.375 L 322.03125 74.007812 L 326.003906 75.140625 L 326.003906 64.097656 L 327.734375 63.035156 L 333.046875 66.300781 L 333.046875 81.375 L 334.152344 81.375 L 334.152344 65.480469 L 336.128906 64.265625 L 336.128906 57.996094 L 337.117188 59.050781 L 337.117188 66.285156 L 338.484375 67.128906 L 338.484375 80.992188 L 339.621094 80.992188 L 339.621094 67.890625 L 342.605469 65.28125 L 342.605469 84.492188 L 343.382812 84.492188 L 343.382812 73.679688 L 348.222656 76.542969 L 348.222656 92.726562 L 249.210938 92.726562 L 249.210938 74.539062 L 252.292969 72.640625 L 256.222656 76.828125 L 256.222656 60.960938 L 258.351562 58.699219 L 261.765625 60.796875 L 261.765625 81.191406 L 262.519531 81.40625 L 262.519531 77.464844 L 263.59375 77.464844 L 263.59375 70.210938 L 265.265625 68.429688 L 265.265625 61.875 L 269.671875 57.183594 Z M 274.410156 60.097656 " fill-opacity="1" fill-rule="evenodd"/><path fill="#ee964b" d="M 312.832031 60.566406 C 305.070312 68.332031 292.363281 68.332031 284.601562 60.566406 C 276.835938 52.804688 276.835938 40.097656 284.601562 32.335938 C 292.363281 24.570312 305.070312 24.570312 312.832031 32.335938 C 320.59375 40.097656 320.59375 52.804688 312.832031 60.566406 M 320.316406 68.050781 L 298.714844 89.65625 L 277.113281 68.050781 C 265.234375 56.171875 265.234375 36.730469 277.113281 24.851562 C 288.996094 12.96875 308.4375 12.96875 320.316406 24.851562 C 332.199219 36.730469 332.199219 56.171875 320.316406 68.050781 Z M 320.316406 68.050781 " fill-opacity="1" fill-rule="evenodd"/><g clip-path="url(#2e0beaa7fb)"><path fill="#ee964b" d="M 249.207031 92.726562 L 348.222656 92.726562 C 356.785156 92.726562 363.78125 93.480469 363.78125 94.40625 C 363.78125 95.332031 356.785156 96.085938 348.222656 96.085938 L 249.207031 96.085938 C 240.648438 96.085938 233.648438 95.332031 233.648438 94.40625 C 233.648438 93.480469 240.648438 92.726562 249.207031 92.726562 " fill-opacity="1" fill-rule="evenodd"/></g><path fill="#ee964b" d="M 276.789062 98.226562 L 320.644531 98.226562 C 329.203125 98.226562 336.203125 98.984375 336.203125 99.90625 C 336.203125 100.832031 329.203125 101.589844 320.644531 101.589844 L 276.789062 101.589844 C 268.226562 101.589844 261.226562 100.832031 261.226562 99.90625 C 261.226562 98.984375 268.226562 98.226562 276.789062 98.226562 " fill-opacity="1" fill-rule="evenodd"/><g clip-path="url(#aaa8d8b925)"><path fill="#ee964b" d="M 295.179688 103.730469 L 302.253906 103.730469 C 310.816406 103.730469 317.8125 104.484375 317.8125 105.410156 C 317.8125 106.335938 310.816406 107.089844 302.253906 107.089844 L 295.179688 107.089844 C 286.617188 107.089844 279.617188 106.335938 279.617188 105.410156 C 279.617188 104.484375 286.617188 103.730469 295.179688 103.730469 " fill-opacity="1" fill-rule="evenodd"/></g><g fill="#0d3b66" fill-opacity="1"><g transform="translate(17.166363, 83.794533)"><g><path d="M 32.21875 1.4375 C 27.863281 1.4375 23.894531 0.78125 20.3125 -0.53125 C 16.738281 -1.851562 13.675781 -3.75 11.125 -6.21875 C 8.570312 -8.6875 6.601562 -11.660156 5.21875 -15.140625 C 3.832031 -18.628906 3.140625 -22.53125 3.140625 -26.84375 C 3.140625 -31.144531 3.832031 -35.035156 5.21875 -38.515625 C 6.601562 -42.003906 8.570312 -44.984375 11.125 -47.453125 C 13.675781 -49.921875 16.738281 -51.8125 20.3125 -53.125 C 23.894531 -54.445312 27.863281 -55.109375 32.21875 -55.109375 C 37.289062 -55.109375 41.835938 -54.207031 45.859375 -52.40625 C 49.878906 -50.613281 53.171875 -48.125 55.734375 -44.9375 C 56.335938 -44.238281 56.222656 -43.597656 55.390625 -43.015625 L 45.953125 -36.71875 C 45.222656 -36.207031 44.582031 -36.328125 44.03125 -37.078125 C 42.695312 -38.679688 41.03125 -39.9375 39.03125 -40.84375 C 37.03125 -41.75 34.757812 -42.203125 32.21875 -42.203125 C 29.257812 -42.203125 26.671875 -41.578125 24.453125 -40.328125 C 22.242188 -39.085938 20.523438 -37.320312 19.296875 -35.03125 C 18.078125 -32.738281 17.46875 -30.007812 17.46875 -26.84375 C 17.46875 -23.53125 18.078125 -20.664062 19.296875 -18.25 C 20.523438 -15.84375 22.242188 -13.988281 24.453125 -12.6875 C 26.671875 -11.382812 29.257812 -10.734375 32.21875 -10.734375 C 34.613281 -10.734375 36.769531 -11.15625 38.6875 -12 C 40.613281 -12.851562 42.21875 -14.023438 43.5 -15.515625 L 43.5 -18.453125 L 34.0625 -18.453125 C 33.113281 -18.453125 32.640625 -18.925781 32.640625 -19.875 L 32.640625 -28.484375 C 32.640625 -29.429688 33.113281 -29.90625 34.0625 -29.90625 L 55.109375 -29.90625 C 56.054688 -29.90625 56.53125 -29.429688 56.53125 -28.484375 L 56.53125 -10.796875 C 56.53125 -10.140625 56.367188 -9.613281 56.046875 -9.21875 C 53.578125 -5.84375 50.289062 -3.222656 46.1875 -1.359375 C 42.09375 0.503906 37.4375 1.4375 32.21875 1.4375 Z M 32.21875 1.4375 "/></g></g></g><g fill="#0d3b66" fill-opacity="1"><g transform="translate(81.30063, 83.794533)"><g><path d="M 29.03125 1.4375 C 26.46875 1.4375 23.992188 1.203125 21.609375 0.734375 C 19.222656 0.265625 17.007812 -0.460938 14.96875 -1.453125 C 12.9375 -2.441406 11.15625 -3.703125 9.625 -5.234375 C 8.101562 -6.773438 6.914062 -8.609375 6.0625 -10.734375 C 5.207031 -12.867188 4.78125 -15.320312 4.78125 -18.09375 L 4.78125 -52.234375 C 4.78125 -53.191406 5.257812 -53.671875 6.21875 -53.671875 L 18.03125 -53.671875 C 18.988281 -53.671875 19.46875 -53.191406 19.46875 -52.234375 L 19.46875 -21.90625 C 19.46875 -18.226562 20.285156 -15.566406 21.921875 -13.921875 C 23.566406 -12.285156 25.9375 -11.46875 29.03125 -11.46875 C 32.207031 -11.46875 34.601562 -12.285156 36.21875 -13.921875 C 37.832031 -15.566406 38.640625 -18.226562 38.640625 -21.90625 L 38.640625 -52.234375 C 38.640625 -53.191406 39.117188 -53.671875 40.078125 -53.671875 L 51.890625 -53.671875 C 52.847656 -53.671875 53.328125 -53.191406 53.328125 -52.234375 L 53.328125 -18.09375 C 53.328125 -14.625 52.6875 -11.65625 51.40625 -9.1875 C 50.125 -6.71875 48.363281 -4.695312 46.125 -3.125 C 43.882812 -1.550781 41.296875 -0.398438 38.359375 0.328125 C 35.429688 1.066406 32.320312 1.4375 29.03125 1.4375 Z M 29.03125 1.4375 "/></g></g></g><g fill="#0d3b66" fill-opacity="1"><g transform="translate(142.988901, 83.794533)"><g><path d="M 18.171875 0 L 6.75 0 C 5.789062 0 5.3125 -0.476562 5.3125 -1.4375 L 5.3125 -52.234375 C 5.3125 -53.191406 5.789062 -53.671875 6.75 -53.671875 L 18.171875 -53.671875 C 19.128906 -53.671875 19.609375 -53.191406 19.609375 -52.234375 L 19.609375 -1.4375 C 19.609375 -0.476562 19.128906 0 18.171875 0 Z M 18.171875 0 "/></g></g></g><g fill="#0d3b66" fill-opacity="1"><g transform="translate(171.481515, 83.794533)"><g><path d="M 29.5625 -53.671875 L 54.15625 -1.71875 C 54.394531 -1.195312 54.414062 -0.78125 54.21875 -0.46875 C 54.019531 -0.15625 53.648438 0 53.109375 0 L 40.5 0 C 39.707031 0 39.160156 -0.382812 38.859375 -1.15625 L 37.109375 -5.65625 L 18.140625 -5.65625 L 16.390625 -1.15625 C 16.085938 -0.382812 15.539062 0 14.75 0 L 2.125 0 C 1.613281 0 1.253906 -0.15625 1.046875 -0.46875 C 0.835938 -0.78125 0.847656 -1.195312 1.078125 -1.71875 L 25.6875 -53.671875 C 26.21875 -54.765625 26.859375 -55.3125 27.609375 -55.3125 C 28.367188 -55.3125 29.019531 -54.765625 29.5625 -53.671875 Z M 27.640625 -29.875 L 22.328125 -16.390625 L 32.921875 -16.390625 Z M 27.640625 -29.875 "/></g></g></g><g fill="#0d3b66" fill-opacity="1"><g transform="translate(24.28827, 103.28766)"><g><path d="M 5.609375 -5.15625 L 3.65625 -5.15625 L 3.65625 0 L 2 0 L 2 -5.15625 L 0.0625 -5.15625 L 0.0625 -6.5 L 5.609375 -6.5 Z M 5.609375 -5.15625 "/></g></g></g><g fill="#0d3b66" fill-opacity="1"><g transform="translate(34.390279, 103.28766)"><g><path d="M 5.71875 -5.1875 L 2.296875 -5.1875 L 2.296875 -3.90625 L 5.390625 -3.90625 L 5.390625 -2.609375 L 2.296875 -2.609375 L 2.296875 -1.296875 L 5.828125 -1.296875 L 5.828125 0 L 0.65625 0 L 0.65625 -6.484375 L 5.71875 -6.484375 Z M 5.71875 -5.1875 "/></g></g></g><g fill="#0d3b66" fill-opacity="1"><g transform="translate(45.075636, 103.28766)"><g><path d="M 4.5625 0 L 3.59375 -1.828125 L 2.296875 -1.828125 L 2.296875 0 L 0.65625 0 L 0.65625 -6.484375 L 3.546875 -6.484375 C 4.410156 -6.484375 5.078125 -6.285156 5.546875 -5.890625 C 6.015625 -5.503906 6.25 -4.945312 6.25 -4.21875 C 6.25 -3.21875 5.851562 -2.523438 5.0625 -2.140625 L 6.4375 0 Z M 2.296875 -3.125 L 3.546875 -3.125 C 3.910156 -3.125 4.1875 -3.210938 4.375 -3.390625 C 4.570312 -3.566406 4.671875 -3.828125 4.671875 -4.171875 C 4.671875 -4.503906 4.570312 -4.753906 4.375 -4.921875 C 4.1875 -5.097656 3.910156 -5.1875 3.546875 -5.1875 L 2.296875 -5.1875 Z M 2.296875 -3.125 "/></g></g></g><g fill="#0d3b66" fill-opacity="1"><g transform="translate(56.223966, 103.28766)"><g><path d="M 4.5625 0 L 3.59375 -1.828125 L 2.296875 -1.828125 L 2.296875 0 L 0.65625 0 L 0.65625 -6.484375 L 3.546875 -6.484375 C 4.410156 -6.484375 5.078125 -6.285156 5.546875 -5.890625 C 6.015625 -5.503906 6.25 -4.945312 6.25 -4.21875 C 6.25 -3.21875 5.851562 -2.523438 5.0625 -2.140625 L 6.4375 0 Z M 2.296875 -3.125 L 3.546875 -3.125 C 3.910156 -3.125 4.1875 -3.210938 4.375 -3.390625 C 4.570312 -3.566406 4.671875 -3.828125 4.671875 -4.171875 C 4.671875 -4.503906 4.570312 -4.753906 4.375 -4.921875 C 4.1875 -5.097656 3.910156 -5.1875 3.546875 -5.1875 L 2.296875 -5.1875 Z M 2.296875 -3.125 "/></g></g></g><g fill="#0d3b66" fill-opacity="1"><g transform="translate(67.372298, 103.28766)"><g><path d="M 4.953125 -1.1875 L 2.125 -1.1875 L 1.65625 0 L -0.046875 0 L 2.75 -6.484375 L 4.453125 -6.484375 L 7.1875 0 L 5.421875 0 Z M 4.46875 -2.453125 L 3.546875 -4.84375 L 2.609375 -2.453125 Z M 4.46875 -2.453125 "/></g></g></g><g fill="#0d3b66" fill-opacity="1"><g transform="translate(78.946563, 103.28766)"><g/></g></g><g fill="#0d3b66" fill-opacity="1"><g transform="translate(85.539256, 103.28766)"><g><path d="M 6.640625 0 L 5.171875 0 L 2.203125 -4 L 2.203125 0 L 0.65625 0 L 0.65625 -6.484375 L 2.109375 -6.484375 L 5.09375 -2.484375 L 5.09375 -6.484375 L 6.640625 -6.484375 Z M 6.640625 0 "/></g></g></g><g fill="#0d3b66" fill-opacity="1"><g transform="translate(97.261672, 103.28766)"><g><path d="M 3.71875 -6.546875 C 4.726562 -6.546875 5.566406 -6.226562 6.234375 -5.59375 C 6.898438 -4.96875 7.234375 -4.1875 7.234375 -3.25 C 7.234375 -2.300781 6.894531 -1.507812 6.21875 -0.875 C 5.550781 -0.238281 4.71875 0.078125 3.71875 0.078125 C 2.71875 0.078125 1.882812 -0.238281 1.21875 -0.875 C 0.550781 -1.507812 0.21875 -2.300781 0.21875 -3.25 C 0.21875 -4.195312 0.550781 -4.984375 1.21875 -5.609375 C 1.882812 -6.234375 2.71875 -6.546875 3.71875 -6.546875 Z M 3.75 -5.15625 C 3.238281 -5.15625 2.800781 -4.972656 2.4375 -4.609375 C 2.082031 -4.242188 1.90625 -3.785156 1.90625 -3.234375 C 1.90625 -2.691406 2.085938 -2.234375 2.453125 -1.859375 C 2.816406 -1.492188 3.25 -1.3125 3.75 -1.3125 C 4.25 -1.3125 4.671875 -1.492188 5.015625 -1.859375 C 5.367188 -2.234375 5.546875 -2.691406 5.546875 -3.234375 C 5.546875 -3.785156 5.367188 -4.242188 5.015625 -4.609375 C 4.671875 -4.972656 4.25 -5.15625 3.75 -5.15625 Z M 3.75 -5.15625 "/></g></g></g><g fill="#0d3b66" fill-opacity="1"><g transform="translate(109.160013, 103.28766)"><g><path d="M 4.21875 0 L 2.515625 0 L -0.015625 -6.484375 L 1.75 -6.484375 L 3.40625 -1.71875 L 5.0625 -6.484375 L 6.765625 -6.484375 Z M 4.21875 0 "/></g></g></g><g fill="#0d3b66" fill-opacity="1"><g transform="translate(120.354641, 103.28766)"><g><path d="M 4.953125 -1.1875 L 2.125 -1.1875 L 1.65625 0 L -0.046875 0 L 2.75 -6.484375 L 4.453125 -6.484375 L 7.1875 0 L 5.421875 0 Z M 4.46875 -2.453125 L 3.546875 -4.84375 L 2.609375 -2.453125 Z M 4.46875 -2.453125 "/></g></g></g><g fill="#0d3b66" fill-opacity="1"><g transform="translate(131.928899, 103.28766)"><g/></g></g><g fill="#0d3b66" fill-opacity="1"><g transform="translate(138.521587, 103.28766)"><g><path d="M 0.65625 -6.484375 L 3.4375 -6.484375 C 4.457031 -6.484375 5.285156 -6.179688 5.921875 -5.578125 C 6.566406 -4.984375 6.890625 -4.207031 6.890625 -3.25 C 6.890625 -2.289062 6.5625 -1.507812 5.90625 -0.90625 C 5.257812 -0.300781 4.414062 0 3.375 0 L 0.65625 0 Z M 2.296875 -5.171875 L 2.296875 -1.3125 L 3.46875 -1.3125 C 3.976562 -1.3125 4.394531 -1.488281 4.71875 -1.84375 C 5.039062 -2.195312 5.203125 -2.660156 5.203125 -3.234375 C 5.203125 -3.804688 5.03125 -4.269531 4.6875 -4.625 C 4.351562 -4.988281 3.925781 -5.171875 3.40625 -5.171875 Z M 2.296875 -5.171875 "/></g></g></g><g fill="#0d3b66" fill-opacity="1"><g transform="translate(150.068072, 103.28766)"><g><path d="M 3.71875 -6.546875 C 4.726562 -6.546875 5.566406 -6.226562 6.234375 -5.59375 C 6.898438 -4.96875 7.234375 -4.1875 7.234375 -3.25 C 7.234375 -2.300781 6.894531 -1.507812 6.21875 -0.875 C 5.550781 -0.238281 4.71875 0.078125 3.71875 0.078125 C 2.71875 0.078125 1.882812 -0.238281 1.21875 -0.875 C 0.550781 -1.507812 0.21875 -2.300781 0.21875 -3.25 C 0.21875 -4.195312 0.550781 -4.984375 1.21875 -5.609375 C 1.882812 -6.234375 2.71875 -6.546875 3.71875 -6.546875 Z M 3.75 -5.15625 C 3.238281 -5.15625 2.800781 -4.972656 2.4375 -4.609375 C 2.082031 -4.242188 1.90625 -3.785156 1.90625 -3.234375 C 1.90625 -2.691406 2.085938 -2.234375 2.453125 -1.859375 C 2.816406 -1.492188 3.25 -1.3125 3.75 -1.3125 C 4.25 -1.3125 4.671875 -1.492188 5.015625 -1.859375 C 5.367188 -2.234375 5.546875 -2.691406 5.546875 -3.234375 C 5.546875 -3.785156 5.367188 -4.242188 5.015625 -4.609375 C 4.671875 -4.972656 4.25 -5.15625 3.75 -5.15625 Z M 3.75 -5.15625 "/></g></g></g><g fill="#0d3b66" fill-opacity="1"><g transform="translate(161.966407, 103.28766)"><g/></g></g><g fill="#0d3b66" fill-opacity="1"><g transform="translate(168.559095, 103.28766)"><g><path d="M 6.640625 0 L 5.171875 0 L 2.203125 -4 L 2.203125 0 L 0.65625 0 L 0.65625 -6.484375 L 2.109375 -6.484375 L 5.09375 -2.484375 L 5.09375 -6.484375 L 6.640625 -6.484375 Z M 6.640625 0 "/></g></g></g><g fill="#0d3b66" fill-opacity="1"><g transform="translate(180.281505, 103.28766)"><g><path d="M 3.71875 -6.546875 C 4.726562 -6.546875 5.566406 -6.226562 6.234375 -5.59375 C 6.898438 -4.96875 7.234375 -4.1875 7.234375 -3.25 C 7.234375 -2.300781 6.894531 -1.507812 6.21875 -0.875 C 5.550781 -0.238281 4.71875 0.078125 3.71875 0.078125 C 2.71875 0.078125 1.882812 -0.238281 1.21875 -0.875 C 0.550781 -1.507812 0.21875 -2.300781 0.21875 -3.25 C 0.21875 -4.195312 0.550781 -4.984375 1.21875 -5.609375 C 1.882812 -6.234375 2.71875 -6.546875 3.71875 -6.546875 Z M 3.75 -5.15625 C 3.238281 -5.15625 2.800781 -4.972656 2.4375 -4.609375 C 2.082031 -4.242188 1.90625 -3.785156 1.90625 -3.234375 C 1.90625 -2.691406 2.085938 -2.234375 2.453125 -1.859375 C 2.816406 -1.492188 3.25 -1.3125 3.75 -1.3125 C 4.25 -1.3125 4.671875 -1.492188 5.015625 -1.859375 C 5.367188 -2.234375 5.546875 -2.691406 5.546875 -3.234375 C 5.546875 -3.785156 5.367188 -4.242188 5.015625 -4.609375 C 4.671875 -4.972656 4.25 -5.15625 3.75 -5.15625 Z M 3.75 -5.15625 "/></g></g></g><g fill="#0d3b66" fill-opacity="1"><g transform="translate(192.17984, 103.28766)"><g><path d="M 4.5625 0 L 3.59375 -1.828125 L 2.296875 -1.828125 L 2.296875 0 L 0.65625 0 L 0.65625 -6.484375 L 3.546875 -6.484375 C 4.410156 -6.484375 5.078125 -6.285156 5.546875 -5.890625 C 6.015625 -5.503906 6.25 -4.945312 6.25 -4.21875 C 6.25 -3.21875 5.851562 -2.523438 5.0625 -2.140625 L 6.4375 0 Z M 2.296875 -3.125 L 3.546875 -3.125 C 3.910156 -3.125 4.1875 -3.210938 4.375 -3.390625 C 4.570312 -3.566406 4.671875 -3.828125 4.671875 -4.171875 C 4.671875 -4.503906 4.570312 -4.753906 4.375 -4.921875 C 4.1875 -5.097656 3.910156 -5.1875 3.546875 -5.1875 L 2.296875 -5.1875 Z M 2.296875 -3.125 "/></g></g></g><g fill="#0d3b66" fill-opacity="1"><g transform="translate(203.328166, 103.28766)"><g><path d="M 5.609375 -5.15625 L 3.65625 -5.15625 L 3.65625 0 L 2 0 L 2 -5.15625 L 0.0625 -5.15625 L 0.0625 -6.5 L 5.609375 -6.5 Z M 5.609375 -5.15625 "/></g></g></g><g fill="#0d3b66" fill-opacity="1"><g transform="translate(213.43017, 103.28766)"><g><path d="M 5.71875 -5.1875 L 2.296875 -5.1875 L 2.296875 -3.90625 L 5.390625 -3.90625 L 5.390625 -2.609375 L 2.296875 -2.609375 L 2.296875 -1.296875 L 5.828125 -1.296875 L 5.828125 0 L 0.65625 0 L 0.65625 -6.484375 L 5.71875 -6.484375 Z M 5.71875 -5.1875 "/></g></g></g><path fill="#0d3b66" d="M 274.410156 60.097656 L 274.410156 82.933594 L 275.378906 82.933594 L 275.378906 73.152344 L 277.925781 70.4375 L 280.695312 71.230469 L 280.695312 82.121094 L 281.539062 82.363281 L 281.539062 68.910156 L 283.253906 67.859375 L 283.253906 62.132812 L 286.332031 58.855469 L 289.175781 61.878906 L 289.175781 84.113281 L 290.167969 84.398438 L 290.167969 73.101562 L 291.058594 73.648438 L 291.058594 66.484375 L 292.535156 66.90625 L 292.535156 62.414062 L 294.335938 62.929688 L 297.054688 60.035156 L 297.054688 80.007812 L 297.679688 80.007812 L 297.679688 69.480469 L 301.054688 65.886719 L 301.054688 84.683594 L 301.59375 90.945312 L 301.59375 62.769531 L 308.074219 69.671875 L 308.074219 76.921875 L 309.160156 76.921875 L 309.160156 66.046875 L 311.539062 64.582031 L 311.539062 60.066406 L 313.394531 58.09375 L 318.589844 63.628906 L 318.589844 82.394531 L 319.808594 82.394531 L 319.808594 76.375 L 322.03125 74.007812 L 326.003906 75.140625 L 326.003906 64.097656 L 327.734375 63.035156 L 333.046875 66.300781 L 333.046875 81.375 L 334.152344 81.375 L 334.152344 65.480469 L 336.128906 64.265625 L 336.128906 57.996094 L 337.117188 59.050781 L 337.117188 66.285156 L 338.484375 67.128906 L 338.484375 80.992188 L 339.621094 80.992188 L 339.621094 67.890625 L 342.605469 65.28125 L 342.605469 84.492188 L 343.382812 84.492188 L 343.382812 73.679688 L 348.222656 76.542969 L 348.222656 92.726562 L 249.210938 92.726562 L 249.210938 74.539062 L 252.292969 72.640625 L 256.222656 76.828125 L 256.222656 60.960938 L 258.351562 58.699219 L 261.765625 60.796875 L 261.765625 81.191406 L 262.519531 81.40625 L 262.519531 77.464844 L 263.59375 77.464844 L 263.59375 70.210938 L 265.265625 68.429688 L 265.265625 61.875 L 269.671875 57.183594 Z M 274.410156 60.097656 " fill-opacity="1" fill-rule="evenodd"/><path fill="#ee964b" d="M 312.832031 60.566406 C 305.070312 68.332031 292.363281 68.332031 284.601562 60.566406 C 276.835938 52.804688 276.835938 40.097656 284.601562 32.335938 C 292.363281 24.570312 305.070312 24.570312 312.832031 32.335938 C 320.59375 40.097656 320.59375 52.804688 312.832031 60.566406 M 320.316406 68.050781 L 298.714844 89.65625 L 277.113281 68.050781 C 265.234375 56.171875 265.234375 36.730469 277.113281 24.851562 C 288.996094 12.96875 308.4375 12.96875 320.316406 24.851562 C 332.199219 36.730469 332.199219 56.171875 320.316406 68.050781 Z M 320.316406 68.050781 " fill-opacity="1" fill-rule="evenodd"/><g clip-path="url(#1dea366ec0)"><path fill="#ee964b" d="M 249.207031 92.726562 L 348.222656 92.726562 C 356.785156 92.726562 363.78125 93.480469 363.78125 94.40625 C 363.78125 95.332031 356.785156 96.085938 348.222656 96.085938 L 249.207031 96.085938 C 240.648438 96.085938 233.648438 95.332031 233.648438 94.40625 C 233.648438 93.480469 240.648438 92.726562 249.207031 92.726562 " fill-opacity="1" fill-rule="evenodd"/></g><path fill="#ee964b" d="M 276.789062 98.226562 L 320.644531 98.226562 C 329.203125 98.226562 336.203125 98.984375 336.203125 99.90625 C 336.203125 100.832031 329.203125 101.589844 320.644531 101.589844 L 276.789062 101.589844 C 268.226562 101.589844 261.226562 100.832031 261.226562 99.90625 C 261.226562 98.984375 268.226562 98.226562 276.789062 98.226562 " fill-opacity="1" fill-rule="evenodd"/><g clip-path="url(#c30bcc10cf)"><path fill="#ee964b" d="M 295.179688 103.730469 L 302.253906 103.730469 C 310.816406 103.730469 317.8125 104.484375 317.8125 105.410156 C 317.8125 106.335938 310.816406 107.089844 302.253906 107.089844 L 295.179688 107.089844 C 286.617188 107.089844 279.617188 106.335938 279.617188 105.410156 C 279.617188 104.484375 286.617188 103.730469 295.179688 103.730469 " fill-opacity="1" fill-rule="evenodd"/></g><g fill="#0d3b66" fill-opacity="1"><g transform="translate(17.166363, 83.794533)"><g><path d="M 32.21875 1.4375 C 27.863281 1.4375 23.894531 0.78125 20.3125 -0.53125 C 16.738281 -1.851562 13.675781 -3.75 11.125 -6.21875 C 8.570312 -8.6875 6.601562 -11.660156 5.21875 -15.140625 C 3.832031 -18.628906 3.140625 -22.53125 3.140625 -26.84375 C 3.140625 -31.144531 3.832031 -35.035156 5.21875 -38.515625 C 6.601562 -42.003906 8.570312 -44.984375 11.125 -47.453125 C 13.675781 -49.921875 16.738281 -51.8125 20.3125 -53.125 C 23.894531 -54.445312 27.863281 -55.109375 32.21875 -55.109375 C 37.289062 -55.109375 41.835938 -54.207031 45.859375 -52.40625 C 49.878906 -50.613281 53.171875 -48.125 55.734375 -44.9375 C 56.335938 -44.238281 56.222656 -43.597656 55.390625 -43.015625 L 45.953125 -36.71875 C 45.222656 -36.207031 44.582031 -36.328125 44.03125 -37.078125 C 42.695312 -38.679688 41.03125 -39.9375 39.03125 -40.84375 C 37.03125 -41.75 34.757812 -42.203125 32.21875 -42.203125 C 29.257812 -42.203125 26.671875 -41.578125 24.453125 -40.328125 C 22.242188 -39.085938 20.523438 -37.320312 19.296875 -35.03125 C 18.078125 -32.738281 17.46875 -30.007812 17.46875 -26.84375 C 17.46875 -23.53125 18.078125 -20.664062 19.296875 -18.25 C 20.523438 -15.84375 22.242188 -13.988281 24.453125 -12.6875 C 26.671875 -11.382812 29.257812 -10.734375 32.21875 -10.734375 C 34.613281 -10.734375 36.769531 -11.15625 38.6875 -12 C 40.613281 -12.851562 42.21875 -14.023438 43.5 -15.515625 L 43.5 -18.453125 L 34.0625 -18.453125 C 33.113281 -18.453125 32.640625 -18.925781 32.640625 -19.875 L 32.640625 -28.484375 C 32.640625 -29.429688 33.113281 -29.90625 34.0625 -29.90625 L 55.109375 -29.90625 C 56.054688 -29.90625 56.53125 -29.429688 56.53125 -28.484375 L 56.53125 -10.796875 C 56.53125 -10.140625 56.367188 -9.613281 56.046875 -9.21875 C 53.578125 -5.84375 50.289062 -3.222656 46.1875 -1.359375 C 42.09375 0.503906 37.4375 1.4375 32.21875 1.4375 Z M 32.21875 1.4375 "/></g></g></g><g fill="#0d3b66" fill-opacity="1"><g transform="translate(81.30063, 83.794533)"><g><path d="M 29.03125 1.4375 C 26.46875 1.4375 23.992188 1.203125 21.609375 0.734375 C 19.222656 0.265625 17.007812 -0.460938 14.96875 -1.453125 C 12.9375 -2.441406 11.15625 -3.703125 9.625 -5.234375 C 8.101562 -6.773438 6.914062 -8.609375 6.0625 -10.734375 C 5.207031 -12.867188 4.78125 -15.320312 4.78125 -18.09375 L 4.78125 -52.234375 C 4.78125 -53.191406 5.257812 -53.671875 6.21875 -53.671875 L 18.03125 -53.671875 C 18.988281 -53.671875 19.46875 -53.191406 19.46875 -52.234375 L 19.46875 -21.90625 C 19.46875 -18.226562 20.285156 -15.566406 21.921875 -13.921875 C 23.566406 -12.285156 25.9375 -11.46875 29.03125 -11.46875 C 32.207031 -11.46875 34.601562 -12.285156 36.21875 -13.921875 C 37.832031 -15.566406 38.640625 -18.226562 38.640625 -21.90625 L 38.640625 -52.234375 C 38.640625 -53.191406 39.117188 -53.671875 40.078125 -53.671875 L 51.890625 -53.671875 C 52.847656 -53.671875 53.328125 -53.191406 53.328125 -52.234375 L 53.328125 -18.09375 C 53.328125 -14.625 52.6875 -11.65625 51.40625 -9.1875 C 50.125 -6.71875 48.363281 -4.695312 46.125 -3.125 C 43.882812 -1.550781 41.296875 -0.398438 38.359375 0.328125 C 35.429688 1.066406 32.320312 1.4375 29.03125 1.4375 Z M 29.03125 1.4375 "/></g></g></g><g fill="#0d3b66" fill-opacity="1"><g transform="translate(142.988901, 83.794533)"><g><path d="M 18.171875 0 L 6.75 0 C 5.789062 0 5.3125 -0.476562 5.3125 -1.4375 L 5.3125 -52.234375 C 5.3125 -53.191406 5.789062 -53.671875 6.75 -53.671875 L 18.171875 -53.671875 C 19.128906 -53.671875 19.609375 -53.191406 19.609375 -52.234375 L 19.609375 -1.4375 C 19.609375 -0.476562 19.128906 0 18.171875 0 Z M 18.171875 0 "/></g></g></g><g fill="#0d3b66" fill-opacity="1"><g transform="translate(171.481515, 83.794533)"><g><path d="M 29.5625 -53.671875 L 54.15625 -1.71875 C 54.394531 -1.195312 54.414062 -0.78125 54.21875 -0.46875 C 54.019531 -0.15625 53.648438 0 53.109375 0 L 40.5 0 C 39.707031 0 39.160156 -0.382812 38.859375 -1.15625 L 37.109375 -5.65625 L 18.140625 -5.65625 L 16.390625 -1.15625 C 16.085938 -0.382812 15.539062 0 14.75 0 L 2.125 0 C 1.613281 0 1.253906 -0.15625 1.046875 -0.46875 C 0.835938 -0.78125 0.847656 -1.195312 1.078125 -1.71875 L 25.6875 -53.671875 C 26.21875 -54.765625 26.859375 -55.3125 27.609375 -55.3125 C 28.367188 -55.3125 29.019531 -54.765625 29.5625 -53.671875 Z M 27.640625 -29.875 L 22.328125 -16.390625 L 32.921875 -16.390625 Z M 27.640625 -29.875 "/></g></g></g><g fill="#0d3b66" fill-opacity="1"><g transform="translate(24.28827, 103.28766)"><g><path d="M 5.609375 -5.15625 L 3.65625 -5.15625 L 3.65625 0 L 2 0 L 2 -5.15625 L 0.0625 -5.15625 L 0.0625 -6.5 L 5.609375 -6.5 Z M 5.609375 -5.15625 "/></g></g></g><g fill="#0d3b66" fill-opacity="1"><g transform="translate(34.390279, 103.28766)"><g><path d="M 5.71875 -5.1875 L 2.296875 -5.1875 L 2.296875 -3.90625 L 5.390625 -3.90625 L 5.390625 -2.609375 L 2.296875 -2.609375 L 2.296875 -1.296875 L 5.828125 -1.296875 L 5.828125 0 L 0.65625 0 L 0.65625 -6.484375 L 5.71875 -6.484375 Z M 5.71875 -5.1875 "/></g></g></g><g fill="#0d3b66" fill-opacity="1"><g transform="translate(45.075636, 103.28766)"><g><path d="M 4.5625 0 L 3.59375 -1.828125 L 2.296875 -1.828125 L 2.296875 0 L 0.65625 0 L 0.65625 -6.484375 L 3.546875 -6.484375 C 4.410156 -6.484375 5.078125 -6.285156 5.546875 -5.890625 C 6.015625 -5.503906 6.25 -4.945312 6.25 -4.21875 C 6.25 -3.21875 5.851562 -2.523438 5.0625 -2.140625 L 6.4375 0 Z M 2.296875 -3.125 L 3.546875 -3.125 C 3.910156 -3.125 4.1875 -3.210938 4.375 -3.390625 C 4.570312 -3.566406 4.671875 -3.828125 4.671875 -4.171875 C 4.671875 -4.503906 4.570312 -4.753906 4.375 -4.921875 C 4.1875 -5.097656 3.910156 -5.1875 3.546875 -5.1875 L 2.296875 -5.1875 Z M 2.296875 -3.125 "/></g></g></g><g fill="#0d3b66" fill-opacity="1"><g transform="translate(56.223966, 103.28766)"><g><path d="M 4.5625 0 L 3.59375 -1.828125 L 2.296875 -1.828125 L 2.296875 0 L 0.65625 0 L 0.65625 -6.484375 L 3.546875 -6.484375 C 4.410156 -6.484375 5.078125 -6.285156 5.546875 -5.890625 C 6.015625 -5.503906 6.25 -4.945312 6.25 -4.21875 C 6.25 -3.21875 5.851562 -2.523438 5.0625 -2.140625 L 6.4375 0 Z M 2.296875 -3.125 L 3.546875 -3.125 C 3.910156 -3.125 4.1875 -3.210938 4.375 -3.390625 C 4.570312 -3.566406 4.671875 -3.828125 4.671875 -4.171875 C 4.671875 -4.503906 4.570312 -4.753906 4.375 -4.921875 C 4.1875 -5.097656 3.910156 -5.1875 3.546875 -5.1875 L 2.296875 -5.1875 Z M 2.296875 -3.125 "/></g></g></g><g fill="#0d3b66" fill-opacity="1"><g transform="translate(67.372298, 103.28766)"><g><path d="M 4.953125 -1.1875 L 2.125 -1.1875 L 1.65625 0 L -0.046875 0 L 2.75 -6.484375 L 4.453125 -6.484375 L 7.1875 0 L 5.421875 0 Z M 4.46875 -2.453125 L 3.546875 -4.84375 L 2.609375 -2.453125 Z M 4.46875 -2.453125 "/></g></g></g><g fill="#0d3b66" fill-opacity="1"><g transform="translate(78.946563, 103.28766)"><g/></g></g><g fill="#0d3b66" fill-opacity="1"><g transform="translate(85.539256, 103.28766)"><g><path d="M 6.640625 0 L 5.171875 0 L 2.203125 -4 L 2.203125 0 L 0.65625 0 L 0.65625 -6.484375 L 2.109375 -6.484375 L 5.09375 -2.484375 L 5.09375 -6.484375 L 6.640625 -6.484375 Z M 6.640625 0 "/></g></g></g><g fill="#0d3b66" fill-opacity="1"><g transform="translate(97.261672, 103.28766)"><g><path d="M 3.71875 -6.546875 C 4.726562 -6.546875 5.566406 -6.226562 6.234375 -5.59375 C 6.898438 -4.96875 7.234375 -4.1875 7.234375 -3.25 C 7.234375 -2.300781 6.894531 -1.507812 6.21875 -0.875 C 5.550781 -0.238281 4.71875 0.078125 3.71875 0.078125 C 2.71875 0.078125 1.882812 -0.238281 1.21875 -0.875 C 0.550781 -1.507812 0.21875 -2.300781 0.21875 -3.25 C 0.21875 -4.195312 0.550781 -4.984375 1.21875 -5.609375 C 1.882812 -6.234375 2.71875 -6.546875 3.71875 -6.546875 Z M 3.75 -5.15625 C 3.238281 -5.15625 2.800781 -4.972656 2.4375 -4.609375 C 2.082031 -4.242188 1.90625 -3.785156 1.90625 -3.234375 C 1.90625 -2.691406 2.085938 -2.234375 2.453125 -1.859375 C 2.816406 -1.492188 3.25 -1.3125 3.75 -1.3125 C 4.25 -1.3125 4.671875 -1.492188 5.015625 -1.859375 C 5.367188 -2.234375 5.546875 -2.691406 5.546875 -3.234375 C 5.546875 -3.785156 5.367188 -4.242188 5.015625 -4.609375 C 4.671875 -4.972656 4.25 -5.15625 3.75 -5.15625 Z M 3.75 -5.15625 "/></g></g></g><g fill="#0d3b66" fill-opacity="1"><g transform="translate(109.160013, 103.28766)"><g><path d="M 4.21875 0 L 2.515625 0 L -0.015625 -6.484375 L 1.75 -6.484375 L 3.40625 -1.71875 L 5.0625 -6.484375 L 6.765625 -6.484375 Z M 4.21875 0 "/></g></g></g><g fill="#0d3b66" fill-opacity="1"><g transform="translate(120.354641, 103.28766)"><g><path d="M 4.953125 -1.1875 L 2.125 -1.1875 L 1.65625 0 L -0.046875 0 L 2.75 -6.484375 L 4.453125 -6.484375 L 7.1875 0 L 5.421875 0 Z M 4.46875 -2.453125 L 3.546875 -4.84375 L 2.609375 -2.453125 Z M 4.46875 -2.453125 "/></g></g></g><g fill="#0d3b66" fill-opacity="1"><g transform="translate(131.928899, 103.28766)"><g/></g></g><g fill="#0d3b66" fill-opacity="1"><g transform="translate(138.521587, 103.28766)"><g><path d="M 0.65625 -6.484375 L 3.4375 -6.484375 C 4.457031 -6.484375 5.285156 -6.179688 5.921875 -5.578125 C 6.566406 -4.984375 6.890625 -4.207031 6.890625 -3.25 C 6.890625 -2.289062 6.5625 -1.507812 5.90625 -0.90625 C 5.257812 -0.300781 4.414062 0 3.375 0 L 0.65625 0 Z M 2.296875 -5.171875 L 2.296875 -1.3125 L 3.46875 -1.3125 C 3.976562 -1.3125 4.394531 -1.488281 4.71875 -1.84375 C 5.039062 -2.195312 5.203125 -2.660156 5.203125 -3.234375 C 5.203125 -3.804688 5.03125 -4.269531 4.6875 -4.625 C 4.351562 -4.988281 3.925781 -5.171875 3.40625 -5.171875 Z M 2.296875 -5.171875 "/></g></g></g><g fill="#0d3b66" fill-opacity="1"><g transform="translate(150.068072, 103.28766)"><g><path d="M 3.71875 -6.546875 C 4.726562 -6.546875 5.566406 -6.226562 6.234375 -5.59375 C 6.898438 -4.96875 7.234375 -4.1875 7.234375 -3.25 C 7.234375 -2.300781 6.894531 -1.507812 6.21875 -0.875 C 5.550781 -0.238281 4.71875 0.078125 3.71875 0.078125 C 2.71875 0.078125 1.882812 -0.238281 1.21875 -0.875 C 0.550781 -1.507812 0.21875 -2.300781 0.21875 -3.25 C 0.21875 -4.195312 0.550781 -4.984375 1.21875 -5.609375 C 1.882812 -6.234375 2.71875 -6.546875 3.71875 -6.546875 Z M 3.75 -5.15625 C 3.238281 -5.15625 2.800781 -4.972656 2.4375 -4.609375 C 2.082031 -4.242188 1.90625 -3.785156 1.90625 -3.234375 C 1.90625 -2.691406 2.085938 -2.234375 2.453125 -1.859375 C 2.816406 -1.492188 3.25 -1.3125 3.75 -1.3125 C 4.25 -1.3125 4.671875 -1.492188 5.015625 -1.859375 C 5.367188 -2.234375 5.546875 -2.691406 5.546875 -3.234375 C 5.546875 -3.785156 5.367188 -4.242188 5.015625 -4.609375 C 4.671875 -4.972656 4.25 -5.15625 3.75 -5.15625 Z M 3.75 -5.15625 "/></g></g></g><g fill="#0d3b66" fill-opacity="1"><g transform="translate(161.966407, 103.28766)"><g/></g></g><g fill="#0d3b66" fill-opacity="1"><g transform="translate(168.559095, 103.28766)"><g><path d="M 6.640625 0 L 5.171875 0 L 2.203125 -4 L 2.203125 0 L 0.65625 0 L 0.65625 -6.484375 L 2.109375 -6.484375 L 5.09375 -2.484375 L 5.09375 -6.484375 L 6.640625 -6.484375 Z M 6.640625 0 "/></g></g></g><g fill="#0d3b66" fill-opacity="1"><g transform="translate(180.281505, 103.28766)"><g><path d="M 3.71875 -6.546875 C 4.726562 -6.546875 5.566406 -6.226562 6.234375 -5.59375 C 6.898438 -4.96875 7.234375 -4.1875 7.234375 -3.25 C 7.234375 -2.300781 6.894531 -1.507812 6.21875 -0.875 C 5.550781 -0.238281 4.71875 0.078125 3.71875 0.078125 C 2.71875 0.078125 1.882812 -0.238281 1.21875 -0.875 C 0.550781 -1.507812 0.21875 -2.300781 0.21875 -3.25 C 0.21875 -4.195312 0.550781 -4.984375 1.21875 -5.609375 C 1.882812 -6.234375 2.71875 -6.546875 3.71875 -6.546875 Z M 3.75 -5.15625 C 3.238281 -5.15625 2.800781 -4.972656 2.4375 -4.609375 C 2.082031 -4.242188 1.90625 -3.785156 1.90625 -3.234375 C 1.90625 -2.691406 2.085938 -2.234375 2.453125 -1.859375 C 2.816406 -1.492188 3.25 -1.3125 3.75 -1.3125 C 4.25 -1.3125 4.671875 -1.492188 5.015625 -1.859375 C 5.367188 -2.234375 5.546875 -2.691406 5.546875 -3.234375 C 5.546875 -3.785156 5.367188 -4.242188 5.015625 -4.609375 C 4.671875 -4.972656 4.25 -5.15625 3.75 -5.15625 Z M 3.75 -5.15625 "/></g></g></g><g fill="#0d3b66" fill-opacity="1"><g transform="translate(192.17984, 103.28766)"><g><path d="M 4.5625 0 L 3.59375 -1.828125 L 2.296875 -1.828125 L 2.296875 0 L 0.65625 0 L 0.65625 -6.484375 L 3.546875 -6.484375 C 4.410156 -6.484375 5.078125 -6.285156 5.546875 -5.890625 C 6.015625 -5.503906 6.25 -4.945312 6.25 -4.21875 C 6.25 -3.21875 5.851562 -2.523438 5.0625 -2.140625 L 6.4375 0 Z M 2.296875 -3.125 L 3.546875 -3.125 C 3.910156 -3.125 4.1875 -3.210938 4.375 -3.390625 C 4.570312 -3.566406 4.671875 -3.828125 4.671875 -4.171875 C 4.671875 -4.503906 4.570312 -4.753906 4.375 -4.921875 C 4.1875 -5.097656 3.910156 -5.1875 3.546875 -5.1875 L 2.296875 -5.1875 Z M 2.296875 -3.125 "/></g></g></g><g fill="#0d3b66" fill-opacity="1"><g transform="translate(203.328166, 103.28766)"><g><path d="M 5.609375 -5.15625 L 3.65625 -5.15625 L 3.65625 0 L 2 0 L 2 -5.15625 L 0.0625 -5.15625 L 0.0625 -6.5 L 5.609375 -6.5 Z M 5.609375 -5.15625 "/></g></g></g><g fill="#0d3b66" fill-opacity="1"><g transform="translate(213.43017, 103.28766)"><g><path d="M 5.71875 -5.1875 L 2.296875 -5.1875 L 2.296875 -3.90625 L 5.390625 -3.90625 L 5.390625 -2.609375 L 2.296875 -2.609375 L 2.296875 -1.296875 L 5.828125 -1.296875 L 5.828125 0 L 0.65625 0 L 0.65625 -6.484375 L 5.71875 -6.484375 Z M 5.71875 -5.1875 "/></g></g></g></svg>